<?xml version="1.0" standalone="no"?>
<!DOCTYPE svg PUBLIC "-//W3C//DTD SVG 20010904//EN"
 "http://www.w3.org/TR/2001/REC-SVG-20010904/DTD/svg10.dtd">
<svg version="1.0" xmlns="http://www.w3.org/2000/svg"
 width="446.000000pt" height="559.000000pt" viewBox="0 0 446.000000 559.000000"
 preserveAspectRatio="xMidYMid meet">

<g transform="translate(0.000000,559.000000) scale(0.100000,-0.100000)"
fill="#000000" stroke="none">
<path d="M2216 3251 c-12 -22 -13 -31 -3 -34 7 -3 5 -6 -5 -6 -40 -2 -65 -208
-39 -318 l13 -53 52 0 c48 0 54 3 65 27 19 42 26 193 12 260 -14 66 -50 145
-68 151 -6 2 -19 -10 -27 -27z m49 -126 c0 -23 -5 -31 -22 -33 -31 -5 -49 31
-27 53 25 25 49 15 49 -20z"/>
<path d="M1756 3169 c-83 -14 -134 -68 -121 -129 13 -60 47 -82 172 -111 123
-28 123 -28 123 -48 0 -27 -19 -38 -75 -44 -76 -9 -129 3 -133 31 -3 19 -9 22
-48 22 l-45 0 3 -47 c3 -48 3 -48 53 -65 32 -11 82 -17 140 -18 118 0 173 24
194 86 13 38 13 44 -5 75 -27 47 -60 61 -198 89 -52 11 -96 34 -96 50 0 17 58
40 104 40 61 0 96 -15 96 -40 0 -17 6 -20 46 -20 l45 0 -3 52 c-3 52 -4 52
-43 64 -60 17 -154 23 -209 13z"/>
<path d="M580 3125 c0 -45 0 -45 35 -45 19 0 35 -2 35 -6 0 -5 -33 -68 -92
-171 -28 -51 -46 -61 -90 -54 -5 0 -8 -17 -8 -39 l0 -40 120 0 120 0 0 40 c0
39 -1 40 -35 40 -26 0 -33 3 -29 15 5 12 26 15 104 15 78 0 99 -3 104 -15 4
-12 -3 -15 -29 -15 -34 0 -35 -1 -35 -40 l0 -40 126 0 125 0 -3 38 c-3 35 -5
37 -42 42 -37 5 -41 9 -83 85 -25 44 -63 115 -85 158 l-40 77 -99 0 -99 0 0
-45z m188 -120 l22 -45 -50 0 -50 0 22 45 c12 25 24 45 27 45 4 0 16 -21 29
-45z"/>
<path d="M1060 3124 l0 -44 40 0 40 0 0 -115 0 -115 -40 0 -40 0 0 -40 0 -40
120 0 120 0 0 35 c0 28 -4 35 -20 36 -11 1 -26 2 -32 3 -7 0 -14 13 -16 29
l-3 27 70 0 70 0 32 -65 31 -65 69 0 69 0 0 35 c0 33 -2 35 -34 35 -60 0 -88
65 -40 90 73 40 71 176 -4 214 -19 9 -86 15 -229 19 l-203 5 0 -44z m388 -56
c14 -14 15 -47 2 -68 -7 -11 -35 -16 -115 -18 l-105 -4 0 51 0 51 103 0 c67 0
107 -4 115 -12z"/>
<path d="M2460 3103 l0 -63 45 0 c38 0 45 3 45 20 0 17 7 20 45 20 l45 0 0
-121 0 -121 -35 4 c-35 4 -35 4 -35 -34 l0 -38 120 0 120 0 0 34 c0 33 -2 35
-37 38 l-38 3 -3 118 -3 117 45 0 c36 0 45 -4 49 -21 5 -17 12 -20 49 -17 l43
3 0 58 0 58 -228 2 -227 2 0 -62z"/>
<path d="M3058 3162 l-88 -3 0 -39 c0 -39 1 -40 35 -40 l35 0 0 -120 0 -120
-35 0 c-33 0 -35 -2 -35 -35 l0 -35 230 0 230 0 0 60 0 60 -40 0 c-32 0 -42
-4 -48 -20 -7 -19 -17 -21 -105 -23 l-97 -2 0 43 0 42 85 0 85 0 0 40 0 40
-85 0 -85 0 0 35 0 35 100 0 c93 0 100 -1 100 -20 0 -17 7 -20 45 -20 l45 0 0
63 0 64 -142 -1 c-79 0 -182 -2 -230 -4z"/>
<path d="M3490 3125 c0 -45 0 -45 35 -45 l35 0 0 -115 0 -115 -35 0 c-34 0
-35 -1 -35 -40 l0 -40 120 0 120 0 0 40 0 40 -40 0 c-36 0 -40 3 -40 24 0 22
40 66 60 66 4 0 40 -38 81 -84 l74 -85 63 0 63 -1 -3 38 c-3 34 -5 37 -32 34
-25 -3 -39 7 -97 68 -38 40 -69 75 -69 79 0 14 126 86 159 91 34 5 36 7 36 43
l0 37 -117 5 -118 6 0 -45 c0 -34 4 -45 17 -48 11 -2 -4 -16 -46 -41 -34 -20
-64 -37 -67 -37 -2 0 -4 18 -4 40 0 38 2 40 30 40 29 0 30 2 30 45 l0 45 -110
0 -110 0 0 -45z"/>
<path d="M2123 2943 c-14 -5 -16 -100 -4 -143 l7 -25 22 35 c12 19 19 42 16
50 -3 8 -8 32 -11 53 -6 37 -8 40 -30 30z"/>
<path d="M2320 2895 c-12 -48 -11 -58 5 -92 l19 -38 12 65 c17 88 17 93 -5
107 -16 10 -19 6 -31 -42z"/>
<path d="M2181 2769 c-1 -23 6 -44 19 -59 11 -13 20 -29 20 -37 0 -7 4 -13 9
-13 11 0 21 25 21 53 0 17 2 19 9 8 7 -11 10 -9 16 9 8 24 -7 46 -24 36 -6 -4
-11 -14 -11 -22 0 -8 -4 -14 -10 -14 -5 0 -10 12 -10 26 0 19 -4 25 -14 21 -9
-4 -17 1 -19 11 -3 9 -5 1 -6 -19z"/>
<path d="M701 2578 c-5 -13 -25 -63 -45 -112 -20 -50 -36 -96 -36 -103 0 -27
22 -11 37 27 16 39 17 40 63 40 46 0 48 -1 64 -40 9 -22 22 -40 30 -40 17 0
-72 241 -91 248 -7 2 -17 -7 -22 -20z m38 -65 c8 -21 16 -44 19 -51 3 -10 -5
-13 -34 -10 -29 2 -38 7 -35 18 11 41 26 80 31 80 3 0 12 -17 19 -37z"/>
<path d="M1097 2593 c-4 -3 -7 -60 -7 -125 0 -97 3 -118 15 -118 11 0 15 20
17 95 l3 96 62 -96 c34 -52 69 -95 78 -95 13 0 15 19 15 119 0 150 -18 173
-22 29 l-3 -103 -68 103 c-65 98 -76 110 -90 95z"/>
<path d="M1633 2585 c-49 -21 -75 -70 -68 -124 11 -88 70 -131 155 -115 l45 9
0 60 0 60 -39 0 c-23 0 -41 -5 -43 -12 -3 -9 6 -13 27 -13 30 0 31 -1 28 -37
l-3 -38 -48 1 c-66 1 -88 24 -89 93 0 42 5 58 24 78 20 22 29 24 81 21 40 -3
57 -1 57 8 0 25 -77 31 -127 9z"/>
<path d="M2057 2593 c-4 -3 -7 -60 -7 -125 0 -98 3 -118 15 -118 11 0 15 12
15 49 0 78 19 81 70 11 24 -33 49 -60 57 -60 20 0 16 9 -25 64 -21 28 -42 57
-46 64 -6 10 7 30 40 63 32 32 43 49 32 49 -9 0 -41 -26 -72 -57 l-56 -58 0
63 c0 57 -6 72 -23 55z"/>
<path d="M2551 2583 c-5 -10 -26 -61 -46 -113 -20 -52 -39 -101 -42 -107 -3
-7 1 -13 9 -13 8 0 22 18 31 40 15 39 17 40 62 40 45 0 47 -1 63 -40 9 -22 23
-40 30 -40 6 0 12 3 12 7 0 18 -94 243 -101 243 -5 0 -12 -8 -18 -17z m44
-100 c6 -32 6 -33 -29 -33 -41 0 -41 0 -20 57 15 39 18 41 29 26 7 -10 16 -33
20 -50z"/>
<path d="M2952 2588 c-25 -13 -37 -46 -27 -77 3 -11 29 -31 61 -46 43 -20 54
-30 54 -49 0 -36 -24 -50 -75 -43 -36 5 -45 4 -45 -8 0 -21 98 -20 128 1 18
12 22 24 20 52 -3 34 -8 39 -61 65 -52 25 -58 31 -55 55 3 25 6 27 56 27 54 0
72 17 30 29 -32 8 -59 6 -86 -6z"/>
<path d="M3390 2538 c-13 -35 -34 -87 -47 -116 -27 -61 -28 -72 -10 -72 8 0
21 18 30 40 15 39 17 40 62 40 45 0 47 -1 63 -40 9 -22 23 -40 30 -40 6 0 12
2 12 5 0 5 -36 100 -49 130 -5 11 -17 41 -27 68 -9 26 -22 47 -29 47 -7 0 -23
-28 -35 -62z m70 -75 c0 -8 -14 -13 -35 -13 -40 0 -41 4 -18 62 l17 42 18 -39
c9 -22 18 -46 18 -52z"/>
<path d="M3792 2368 c5 -32 28 -35 28 -4 0 17 -5 26 -16 26 -10 0 -14 -7 -12
-22z"/>
</g>
</svg>
